<?xml version="1.0" encoding="utf-8"?>
<!-- Generator: Adobe Illustrator 29.8.1, SVG Export Plug-In . SVG Version: 9.03 Build 0)  -->
<svg version="1.1" xmlns="http://www.w3.org/2000/svg" xmlns:xlink="http://www.w3.org/1999/xlink" x="0px" y="0px"
	 viewBox="0 0 1024 1024" style="enable-background:new 0 0 1024 1024;" xml:space="preserve">
<g>
</g>
<g id="_x32__-_Layer">
	<g>
		<path style="fill:#12326D;" d="M577.1694336,903.1265869H446.8309631
			c-65.5926514,0-127.2593079-25.5427856-173.6397705-71.9240723
			c-46.3808594-46.3812866-71.924057-108.0479126-71.924057-173.6401367V527.2246704
			c0-65.5926514,25.5431976-127.2592773,71.924057-173.63974c46.3804626-46.3808594,108.0471191-71.9240723,173.6397705-71.9240723
			h130.3384705c65.5922852,0,127.2589111,25.5432129,173.6393433,71.9240723
			c46.3812866,46.3808594,71.9240723,108.0470886,71.9240723,173.63974v130.3377075
			c0,65.5922241-25.5427856,127.2588501-71.9240723,173.6401367
			C704.4283447,877.5838013,642.7617188,903.1265869,577.1694336,903.1265869z M446.8309631,340.0047302
			c-50.0083618,0-97.023407,19.4743652-132.3847046,54.8352356
			c-35.3609009,35.3612976-54.8352661,82.3763428-54.8352661,132.3847046v130.3377075
			c0,50.0079346,19.4743652,97.0233765,54.8352661,132.3850708c35.3612976,35.3609009,82.3763428,54.8352661,132.3847046,54.8352661
			h130.3384705c50.0079956,0,97.022583-19.4743652,132.3843384-54.8352661
			c35.3608398-35.3616943,54.8352661-82.3771362,54.8352661-132.3850708V527.2246704
			c0-50.0083618-19.4744263-97.023407-54.8352661-132.3847046c-35.3617554-35.3608704-82.3763428-54.8352356-132.3843384-54.8352356
			H446.8309631z"/>
	</g>
</g>
</svg>
