<?xml version="1.0" encoding="utf-8"?>
<!-- Generator: Adobe Illustrator 29.8.1, SVG Export Plug-In . SVG Version: 9.03 Build 0)  -->
<svg version="1.1" xmlns="http://www.w3.org/2000/svg" xmlns:xlink="http://www.w3.org/1999/xlink" x="0px" y="0px"
	 viewBox="0 0 1024 1024" style="enable-background:new 0 0 1024 1024;" xml:space="preserve">
<g>
</g>
<g id="_x33__-_layer">
	<path style="fill:#EEF5FF;" d="M855.3853149,176.7232666c-35.6895142,0-65.6350098,24.9752808-73.3323364,58.3603516h-190.592041
		c-4.7410278-0.2703247-9.5042725-0.4227905-14.2915039-0.4227905h-130.338501
		c-4.7872925,0-9.5505371,0.1524658-14.2915649,0.4227905H241.9470215
		c-7.6973877-33.3850708-37.6431274-58.3603516-73.3323364-58.3603516c-41.5048218,0-75.2716064,33.7667847-75.2716064,75.2716064
		c0,41.5048828,33.7667847,75.2716675,75.2716064,75.2716675c35.689209,0,65.6349487-24.9753418,73.3323364-58.3604126h79.6203613
		c-17.4196167,10.3669434-33.6685791,22.9710693-48.3761597,37.678772
		c-46.3809204,46.3804932-71.9240723,108.0471191-71.9240723,173.6397705v130.3376465
		c0,65.5922852,25.5431519,127.2589111,71.9240723,173.6401978
		c46.3804321,46.3812866,108.0470581,71.9240723,173.6397095,71.9240723h130.338501
		c65.5922852,0,127.2589111-25.5427856,173.6393433-71.9240723
		c46.3812866-46.3812866,71.9240723-108.0479126,71.9240723-173.6401978V480.2246704
		c0-65.5926514-25.5427856-127.2589111-71.9240723-173.6397705c-14.7075806-14.7077026-30.956543-27.3118286-48.3761597-37.678772
		h79.6203613c7.6973267,33.3850708,37.6428223,58.3604126,73.3323364,58.3604126
		c41.505249,0,75.2716064-33.7667847,75.2716064-75.2716675
		C930.6569214,210.4900513,896.890564,176.7232666,855.3853149,176.7232666z M168.6146851,293.4440308
		c-22.8549805,0-41.4490967-18.5941772-41.4490967-41.4491577s18.5941162-41.4490967,41.4490967-41.4490967
		s41.4490967,18.5941162,41.4490967,41.4490967S191.4696655,293.4440308,168.6146851,293.4440308z M764.3890381,480.2246704
		v130.3376465c0,50.0079956-19.4744263,97.0234375-54.8352661,132.3851318
		c-35.3617554,35.3609009-82.3763428,54.8352661-132.3843384,54.8352661h-130.338501
		c-50.0083618,0-97.0233765-19.4743652-132.3847046-54.8352661
		c-35.3608398-35.3616943-54.8352661-82.3771362-54.8352661-132.3851318V480.2246704
		c0-50.0083618,19.4744263-97.0234375,54.8352661-132.3847046c35.3613281-35.3609009,82.3763428-54.8352661,132.3847046-54.8352661
		h130.338501c50.0079956,0,97.022583,19.4743652,132.3843384,54.8352661
		C744.9146118,383.2012329,764.3890381,430.2163086,764.3890381,480.2246704z M855.3853149,293.4440308
		c-22.8549805,0-41.4490967-18.5941772-41.4490967-41.4491577s18.5941162-41.4490967,41.4490967-41.4490967
		s41.4490967,18.5941162,41.4490967,41.4490967S878.2402954,293.4440308,855.3853149,293.4440308z"/>
</g>
</svg>
