<?xml version="1.0" encoding="utf-8"?>
<!-- Generator: Adobe Illustrator 29.8.1, SVG Export Plug-In . SVG Version: 9.03 Build 0)  -->
<svg version="1.1" xmlns="http://www.w3.org/2000/svg" xmlns:xlink="http://www.w3.org/1999/xlink" x="0px" y="0px"
	 viewBox="0 0 1024 1024" style="enable-background:new 0 0 1024 1024;" xml:space="preserve">
<g>
</g>
<g id="_x31___x2013__Layer">
	<path style="fill:#EEF5FF;" d="M648.0117798,586.3618774l-33.1801758-55.4820557
		c13.8700562-8.5740356,23.1350098-23.9158325,23.1350098-41.3856812c0-26.8115234-21.8129272-48.6243896-48.6240234-48.6243896
		h-58.5844116c32.7240601-8.1720581,57.0419312-37.8080444,57.0419312-73.0272827
		c0-41.5048218-33.7663574-75.2716064-75.2716064-75.2716064c-41.5048828,0-75.2716675,33.7667847-75.2716675,75.2716064
		c0,35.2192383,24.3181763,64.8552246,57.0421143,73.0272827h-59.9272461
		c-26.8115234,0-48.6244507,21.8128662-48.6244507,48.6243896c0,17.6244507,9.4262695,33.0874023,23.5010986,41.6160278
		l-32.8146362,57.4993896c-12.1846924,21.3496704-9.8573608,48.4316406,5.7909546,67.3890991l113.3476562,137.3230591
		c8.5186768,10.3205566,24.3318481,10.3227539,32.8533936,0.0045166l114.3962402-138.5158691
		C658.8232422,635.4351196,660.9082642,607.9278564,648.0117798,586.3618774z M471.0793457,367.8424683
		c0-22.8549805,18.5941772-41.4490967,41.4491577-41.4490967c22.8549194,0,41.4490967,18.5941162,41.4490967,41.4490967
		s-18.5941772,41.4490967-41.4490967,41.4490967C489.6735229,409.2915649,471.0793457,390.6974487,471.0793457,367.8424683z
		 M434.3717041,474.6922607h154.9708862c8.1616821,0,14.8015137,6.6401978,14.8015137,14.8018799
		s-6.6398315,14.8018799-14.8015137,14.8018799h-2.4903564H436.9210815h-2.5498047
		c-8.1616821,0-14.8014526-6.6401978-14.8014526-14.8018799S426.210022,474.6922607,434.3717041,474.6922607z
		 M616.7432861,633.2733154l-88.3101196,106.9294434c-8.5215454,10.3182373-24.3347168,10.31604-32.8533936-0.0045166
		l-87.2706299-105.7301025c-6.7558594-8.1847534-7.7608032-19.8765259-2.5003662-29.0942993l32.2514038-56.5118408
		c3.7910767-6.6428833,10.8526001-10.7434692,18.5011597-10.7434692H567.670105
		c7.4936523,0,14.4361572,3.937439,18.2822876,10.3688354l33.0311279,55.2333374
		C624.5515137,613.0317993,623.6514893,624.9076538,616.7432861,633.2733154z"/>
</g>
</svg>
